<svg width="34" height="34" viewBox="0 0 34 34" fill="none" xmlns="http://www.w3.org/2000/svg">
<circle cx="17" cy="17" r="17" fill="#F59E0B"/>
<path fill-rule="evenodd" clip-rule="evenodd" d="M17.8295 10.6795C17.4604 10.0419 16.5399 10.0419 16.1708 10.6795L9.89489 21.5197C9.52501 22.1586 9.98602 22.9582 10.7243 22.9582H23.2761C24.0143 22.9582 24.4753 22.1586 24.1055 21.5197L17.8295 10.6795ZM14.9448 9.96971C15.8596 8.38965 18.1408 8.38966 19.0556 9.96971L25.3315 20.8099C26.2482 22.3933 25.1056 24.3749 23.2761 24.3749H10.7243C8.89472 24.3749 7.7522 22.3933 8.66887 20.8099L14.9448 9.96971ZM17.0002 13.7916C17.3914 13.7916 17.7085 14.1087 17.7085 14.4999V17.8332C17.7085 18.2244 17.3914 18.5416 17.0002 18.5416C16.609 18.5416 16.2918 18.2244 16.2918 17.8332V14.4999C16.2918 14.1087 16.609 13.7916 17.0002 13.7916ZM17.0002 21.1666C17.4604 21.1666 17.8335 20.7935 17.8335 20.3332C17.8335 19.873 17.4604 19.4999 17.0002 19.4999C16.5399 19.4999 16.1668 19.873 16.1668 20.3332C16.1668 20.7935 16.5399 21.1666 17.0002 21.1666Z" fill="white"/>
</svg>
