<svg width="24" height="24" viewBox="0 0 24 24" fill="none" xmlns="http://www.w3.org/2000/svg">
<path d="M24 12C24 5.37258 18.6274 0 12 0C5.37258 0 0 5.37258 0 12C0 18.6274 5.37258 24 12 24C18.6274 24 24 18.6274 24 12Z" fill="white"/>
<path fill-rule="evenodd" clip-rule="evenodd" d="M20.9998 12.2089C20.9998 11.5571 20.9413 10.9304 20.8327 10.3288H12.1759V13.8842H17.1226C16.9095 15.0332 16.262 16.0066 15.2885 16.6584V18.9646H18.259C19.9971 17.3645 20.9998 15.0081 20.9998 12.2089Z" fill="#4285F4"/>
<path fill-rule="evenodd" clip-rule="evenodd" d="M12.1759 21.1916C14.6576 21.1916 16.7383 20.3685 18.259 18.9647L15.2885 16.6585C14.4654 17.21 13.4126 17.5358 12.1759 17.5358C9.78195 17.5358 7.75563 15.919 7.03284 13.7464H3.96204V16.1279C5.47446 19.1318 8.58287 21.1916 12.1759 21.1916Z" fill="#34A853"/>
<path fill-rule="evenodd" clip-rule="evenodd" d="M7.03283 13.7464C6.849 13.1949 6.74455 12.6058 6.74455 12C6.74455 11.3942 6.849 10.8051 7.03283 10.2536V7.87213H3.96202C3.3395 9.11299 2.98438 10.5168 2.98438 12C2.98438 13.4831 3.3395 14.8869 3.96202 16.1278L7.03283 13.7464Z" fill="#FBBC05"/>
<path fill-rule="evenodd" clip-rule="evenodd" d="M12.1759 6.46422C13.5254 6.46422 14.737 6.92798 15.6896 7.83878L18.3259 5.20248C16.7341 3.7193 14.6535 2.8085 12.1759 2.8085C8.58287 2.8085 5.47446 4.86824 3.96204 7.8722L7.03284 10.2536C7.75563 8.0811 9.78195 6.46422 12.1759 6.46422Z" fill="#EA4335"/>
</svg>
